PathFileType	4	(X/Y/Z)	C:\Users\willi\Desktop\Data_PaperCallum_v2\17_Akif\Gait03\marker_experimental_temp.trc
DataRate	CameraRate	NumFrames	NumMarkers	Units	OrigDataRate	OrigDataStartFrame	OrigNumFrames
100.000000	100.000000	4	27	mm	100.000000	118	158
Frame#	Time	C7			T10			Clav			Sternum			Right_Back			PCL_CRAN			PCL_RECHTS			PCL_LINKS			RCL_UL_CRAN			RCL_UL_POST			RCL_UL_ANT			RCL_LL_CRAN			RCL_LL_POST			RCL_LL_ANT			Right_Heel			Right_Toe			Right_M5			LCL_UL_CRAN			LCL_UL_POST			LCL_UL_ANT			LCL_LL_CRAN			LCL_LL_POST			LCL_LL_ANT			Left_Heel			Left_Toe			Left_M5			*26			
		X1	Y1	Z1	X2	Y2	Z2	X3	Y3	Z3	X4	Y4	Z4	X5	Y5	Z5	X6	Y6	Z6	X7	Y7	Z7	X8	Y8	Z8	X9	Y9	Z9	X10	Y10	Z10	X11	Y11	Z11	X12	Y12	Z12	X13	Y13	Z13	X14	Y14	Z14	X15	Y15	Z15	X16	Y16	Z16	X17	Y17	Z17	X18	Y18	Z18	X19	Y19	Z19	X20	Y20	Z20	X21	Y21	Z21	X22	Y22	Z22	X23	Y23	Z23	X24	Y24	Z24	X25	Y25	Z25	X26	Y26	Z26	X27	Y27	Z27	

119	1.18	-253.7409973144532	1388.861694335938	167.8243408203125	-225.6993408203126	1170.593872070313	172.2006225585938	-399.9378356933594	1321.119140625	177.0386505126953	-464.3684387207032	1159.741333007813	199.8228759765625	-222.3942413330079	1320.712524414063	62.58532714843751	-240.980209350586	1001.543518066406	161.487060546875	-235.9913482666016	944.0765380859375	132.0972747802735	-229.9009857177735	939.4063720703125	182.2374725341797	-416.1856079101563	720.576416015625	-1.862820386886571	-411.4895935058594	655.6604614257813	4.150249004364039	-459.4079589843751	672.71923828125	2.237124681472806	-449.7193603515625	367.8505249023438	39.21466445922854	-427.1396789550781	306.279052734375	35.3188171386719	-477.0489501953125	308.2475585937499	47.62647628784183	-378.9514465332031	26.49491691589353	127.2131118774414	-580.7061157226563	29.43503952026364	129.957015991211	-534.9819946289063	7.9408297538757	70.94482421875003	-327.6105957031251	726.0498046875	352.5171203613281	-316.1125183105469	661.0919189453125	348.2886352539063	-362.5325317382813	670.9254150390625	361.9354553222656	-238.4676361083984	393.7216491699219	359.2393188476563	-176.9209289550781	372.8359069824219	352.265625	-210.8916778564453	334.9033508300781	349.8282165527344	59.45432281494141	257.0396423339844	246.6249237060547	-10.98968601226806	76.58615875244141	260.77587890625	31.46776199340821	102.0194778442383	311.1746826171875	nan	nan	nan	
120	1.19	-267.2530212402344	1391.289306640625	166.6187896728516	-239.1450653076173	1173.058959960938	170.9924011230469	-413.2205200195313	1323.630981445313	176.7915649414063	-477.5068969726563	1162.248779296875	199.7446594238282	-236.7712860107423	1323.40380859375	60.61967086791994	-254.2467346191407	1003.992919921875	160.6195220947266	-249.2866973876954	946.4864501953125	131.3271484375	-243.2089538574219	941.8761596679688	181.4785461425782	-426.0278015136719	721.784912109375	-1.960262537002537	-419.6406555175782	656.9632568359375	3.789727210998561	-468.0254821777344	672.6181640625	2.588011026382475	-451.2019958496094	367.8022766113281	39.02482223510745	-427.8152465820313	306.4113159179688	36.11148071289065	-478.0428161621094	307.9592285156249	47.09280395507815	-378.7854919433594	26.48274612426755	127.3661727905274	-580.573974609375	29.45860671997067	130.1368713378907	-534.9577026367188	8.001550674438445	71.01233673095706	-346.0398254394532	728.2874755859375	351.7559509277344	-336.0001220703126	663.2581176757813	347.4396667480469	-382.2457275390626	674.2817993164063	361.248779296875	-267.6275024414063	395.877685546875	359.1007080078125	-205.8641052246094	375.452880859375	352.3313903808594	-239.5183563232422	337.5689392089844	348.3511962890625	32.14105606079102	259.05224609375	245.1766052246094	-43.5435562133789	80.78744506835938	262.0920715332031	-0.149365678429591	106.0314788818359	311.8997802734375	nan	nan	nan	
121	1.2	-280.6568298339845	1393.699096679688	165.5144653320313	-252.4594116210938	1175.507690429688	169.8038787841797	-426.3748779296876	1326.113647460938	176.58935546875	-490.5195312500001	1164.726440429688	199.6399993896485	-251.0065307617188	1326.119506835938	58.74415969848634	-267.3803405761719	1006.453369140625	159.7771453857422	-262.4397888183594	948.877197265625	130.6419525146485	-256.3894958496094	944.3782958984375	180.8082733154297	-435.5854187011719	722.91552734375	-1.861998319625828	-427.6351928710938	658.2650146484375	3.608530998230007	-476.4179382324219	672.5487060546875	3.155550956726104	-452.3233947753906	367.8791809082031	38.88216018676761	-428.4625854492188	306.7255249023438	36.48686981201175	-478.8409729003906	307.8402709960937	46.61548233032229	-378.6666564941406	26.54388618469236	127.4852523803711	-580.4916381835938	29.40153312683102	130.2298126220703	-534.9525146484375	7.959571361541715	71.04868316650393	-364.3014221191407	730.9166870117188	351.0373840332031	-355.7055053710938	665.930419921875	346.6487121582031	-401.7675170898438	678.0703125	360.505126953125	-296.3830261230469	398.5391235351563	358.53125	-234.515625	378.2585754394531	351.7588806152344	-268.0195922851563	340.6109924316406	346.9841003417969	4.068429470062255	258.8486328125	243.5415344238281	-78.22098541259764	83.65135955810547	263.2138366699219	-33.75143432617186	108.1633224487305	312.5106506347656	nan	nan	nan	
122	1.21	-293.9634399414064	1396.041015625	164.5111541748047	-265.6602172851563	1177.887817382813	168.6415405273438	-439.4182739257813	1328.520385742188	176.4187774658203	-503.4340209960938	1167.128051757813	199.4875183105469	-265.1035156250001	1328.80126953125	56.96821594238283	-280.4015197753907	1008.875549316406	158.9815673828125	-275.4674987792969	951.2019653320313	130.0598449707032	-269.4673156738282	946.8621826171875	180.2448120117188	-444.8728027343751	723.9541625976563	-1.617943763732883	-435.5534667968751	659.5426025390625	3.608164548873928	-484.6495361328126	672.5637817382813	3.727927923202544	-453.21826171875	368.1023254394531	38.77767181396487	-429.1624755859375	307.2170104980469	36.42878341674808	-479.5384521484375	307.8941955566406	46.17229843139651	-378.6003112792969	26.67771148681638	127.5696792602539	-580.4588012695313	29.2979583740234	130.2390289306641	-534.9620361328125	7.842734813690153	71.04373931884768	-382.4309692382813	733.8341064453125	350.3927917480469	-375.3402404785157	668.9448852539063	345.9565734863281	-421.1737060546876	682.1637573242188	359.7724304199219	-324.6519165039063	401.5740661621094	357.5581970214844	-262.8575744628906	381.000732421875	350.5518798828125	-296.4683227539063	343.758056640625	345.9281616210938	-24.7705192565918	256.5062561035156	241.7763519287109	-114.5881729125976	85.15619659423828	264.1509094238281	-68.99817657470702	108.5563354492188	313.0225219726563	nan	nan	nan	
